<?xml version="1.0" standalone="no"?>
<!DOCTYPE svg PUBLIC "-//W3C//DTD SVG 20010904//EN"
 "http://www.w3.org/TR/2001/REC-SVG-20010904/DTD/svg10.dtd">
<svg version="1.0" xmlns="http://www.w3.org/2000/svg"
 width="70.000000pt" height="70.000000pt" viewBox="0 0 70.000000 70.000000"
 preserveAspectRatio="xMidYMid meet">
<metadata>
Created by potrace 1.14, written by Peter Selinger 2001-2017
</metadata>
<g transform="translate(0.000000,70.000000) scale(0.100000,-0.100000)"
fill="#000000" stroke="none">
<path d="M263 665 c-18 -8 -33 -12 -33 -10 0 11 -99 -57 -123 -85 -78 -87
-108 -209 -76 -310 78 -245 367 -323 562 -151 32 29 84 116 91 152 3 13 5 24
6 24 10 0 6 94 -6 136 -8 29 -15 60 -16 67 -1 6 -5 12 -10 12 -4 0 -8 6 -8 13
0 10 -45 60 -90 100 -8 7 -33 21 -55 30 -22 10 -47 22 -55 26 -27 14 -153 12
-187 -4z m167 -17 c0 2 7 -1 15 -8 8 -6 19 -9 25 -5 5 3 10 3 10 -2 0 -4 13
-14 29 -21 28 -13 69 -48 104 -92 51 -62 68 -200 34 -281 -20 -49 -109 -154
-120 -143 -4 4 -7 3 -7 -2 0 -16 -97 -46 -153 -48 -120 -5 -242 66 -283 163
-8 20 -14 36 -12 37 2 0 -3 8 -10 16 -26 32 -16 142 21 229 24 54 115 130 175
145 70 17 92 19 130 14 23 -4 42 -5 42 -2z"/>
<path d="M366 602 c-2 -4 -4 -121 -4 -260 l0 -254 41 5 c54 7 74 15 117 46 44
32 75 66 90 100 7 14 16 33 20 41 15 31 8 124 -12 164 -24 47 -96 118 -142
140 -38 18 -103 29 -110 18z m74 -52 c0 -5 -4 -10 -10 -10 -5 0 -10 5 -10 10
0 6 5 10 10 10 6 0 10 -4 10 -10z m-30 -20 c0 -5 -2 -10 -4 -10 -3 0 -8 5 -11
10 -3 6 -1 10 4 10 6 0 11 -4 11 -10z m55 0 c-3 -5 -11 -10 -16 -10 -6 0 -7 5
-4 10 3 6 11 10 16 10 6 0 7 -4 4 -10z m51 -12 c4 -7 3 -8 -5 -4 -6 4 -14 0
-17 -8 -3 -9 -11 -16 -17 -16 -5 0 -2 9 8 20 21 23 22 24 31 8z m-82 -23 c-4
-8 -10 -12 -15 -9 -14 8 -10 24 6 24 9 0 12 -6 9 -15z m120 -4 c3 -5 -2 -8
-12 -7 -11 1 -16 -5 -14 -16 3 -21 -4 -23 -22 -6 -11 10 -9 15 8 24 27 15 34
16 40 5z m-84 -16 c0 -1 -6 -8 -14 -15 -12 -9 -15 -8 -13 8 0 12 6 18 14 15 7
-3 13 -6 13 -8z m-41 -25 c13 -16 28 -27 34 -23 5 3 7 1 3 -5 -11 -19 15 -25
34 -7 10 9 21 12 24 7 3 -5 -3 -12 -14 -15 -13 -3 -18 -10 -14 -21 4 -12 2
-15 -9 -10 -9 3 -18 12 -21 20 -3 9 -11 12 -17 8 -7 -4 -9 -3 -5 4 3 6 1 14
-6 19 -20 13 -52 53 -42 53 5 0 20 -14 33 -30z m69 -8 c2 -7 -2 -10 -12 -6 -9
3 -16 11 -16 16 0 13 23 5 28 -10z m56 9 c3 -5 -1 -11 -9 -14 -9 -4 -12 -1 -8
9 6 16 10 17 17 5z m-101 -102 c-11 -13 -11 -18 1 -28 12 -10 11 -15 -7 -35
-22 -22 -37 -24 -37 -5 0 5 7 9 15 9 8 0 15 5 15 10 0 6 0 13 0 18 0 4 -4 7
-10 7 -5 0 -10 5 -10 10 0 6 6 10 13 10 6 0 12 7 12 15 0 8 -6 14 -12 13 -7
-2 -13 4 -13 12 0 9 -7 18 -15 21 -8 4 -13 10 -10 14 3 5 20 -6 38 -23 28 -27
31 -34 20 -48z m124 55 c-9 -9 -28 6 -21 18 4 6 10 6 17 -1 6 -6 8 -13 4 -17z
m-17 -24 c24 -24 25 -30 4 -30 -8 0 -13 4 -10 9 3 5 -1 11 -9 15 -8 3 -15 10
-15 16 0 15 8 12 30 -10z m47 6 c0 -8 -6 -12 -14 -9 -7 3 -10 9 -7 14 8 14 21
11 21 -5z m-82 -27 c-10 -15 -25 -10 -19 6 4 8 10 12 15 9 5 -3 7 -10 4 -15z
m-31 -24 c3 -9 0 -15 -9 -15 -9 0 -12 6 -9 15 4 8 7 15 9 15 2 0 5 -7 9 -15z
m89 -8 c21 18 21 18 7 -2 -8 -11 -26 -30 -40 -43 -14 -13 -24 -31 -22 -39 3
-11 -5 -9 -27 8 -34 27 -38 39 -15 39 8 0 13 -4 10 -9 -13 -20 22 -17 42 4 19
20 20 24 7 35 -8 7 -15 17 -15 23 0 6 7 1 16 -11 16 -23 17 -23 37 -5z m-58
-17 c-3 -5 -11 -10 -16 -10 -6 0 -7 5 -4 10 3 6 11 10 16 10 6 0 7 -4 4 -10z
m46 -59 c-6 -4 -18 -16 -27 -27 -11 -14 -11 -11 2 13 10 18 22 29 27 26 5 -3
4 -8 -2 -12z m-121 -55 c0 -19 -19 -41 -27 -32 -4 5 -2 11 5 13 17 7 15 21 -8
45 -11 12 -20 26 -20 30 0 5 11 -3 25 -18 14 -15 25 -32 25 -38z m15 55 c3 -5
1 -12 -5 -16 -5 -3 -10 1 -10 9 0 18 6 21 15 7z m30 -20 c3 -6 -4 -15 -15 -21
-20 -11 -21 -10 -10 9 12 23 16 25 25 12z m-88 -43 c-3 -8 -6 -5 -6 6 -1 11 2
17 5 13 3 -3 4 -12 1 -19z m113 13 c0 -6 -4 -12 -8 -15 -5 -3 -9 1 -9 9 0 8 4
15 9 15 4 0 8 -4 8 -9z m-25 -31 c3 -5 2 -10 -4 -10 -5 0 -13 5 -16 10 -3 6
-2 10 4 10 5 0 13 -4 16 -10z m-85 -20 c0 -5 -5 -10 -11 -10 -5 0 -7 5 -4 10
3 6 8 10 11 10 2 0 4 -4 4 -10z"/>
</g>
</svg>
